<svg xmlns="http://www.w3.org/2000/svg" width="37" height="37" shape-rendering="geometricPrecision" image-rendering="optimizeQuality" fill-rule="evenodd" clip-rule="evenodd" viewBox="0 0 37000 37000"><path fill="#fff" d="m22588 16619l-6517-3763v7525l6517-3762m-11908-7897h15640v15793h-15640v-15793m-5789 16718h27218v-17643h-27218v17643m4864-4179v3254h-3939v-3254h3939m0-4180v3255h-3939v-3255h3939m0-4179v3254h-3939v-3254h3939m-3939-4180h3939v3255h-3939v-3255m21428 15793v-3254h3940v3254h-3940m0-4179v-3255h3940v3255h-3940m0-4180v-3254h3940v3254h-3940m0-7434h3940v3255h-3940v-3255"/></svg>