<svg xmlns="http://www.w3.org/2000/svg" width="125" height="30" shape-rendering="geometricPrecision" image-rendering="optimizeQuality" fill-rule="evenodd" clip-rule="evenodd" viewBox="0 0 125000 30000"><path fill="#fff" d="m29313 5943c2464 0 4700 691 4700 3632 0 1500-712 2439-2029 3098 2451 721 3395 3466 2297 5661-845 1690-3043 2351-4807 2351h-7158v-14742h6997m-427 5982c1172 0 1976-521 1976-1763 0-1415-975-1709-2190-1709h-3098v3472h3312m160 6303c1277 0 2404-538 2404-1977 0-1521-911-2136-2350-2136h-3526v4113h3472m12232 587c902 0 2044-472 2350-1388h2617c-801 2402-2481 3632-5021 3632-3419 0-5448-2324-5448-5662 0-3199 2109-5662 5448-5662 3755 0 5336 3014 5128 6356h-7745c0 1740 956 2724 2671 2724m-214-6837c-1354 0-2403 917-2403 2297h4807c-187-1405-921-2297-2404-2297m9454-6035v5555c393-332 1232-1763 3205-1763 3093 0 3846 1742 3846 4433v6570h-2938v-6036c0-1359-260-2617-1869-2617-1932 0-2244 1403-2244 3045v5608h-2937v-14795h2937m11965 3952c2269-413 6463-339 6463 2831v5608c0 684 64 1848 481 2404h-2992c-209-209-267-730-267-1015-994 995-2212 1282-3578 1282-2055 0-3686-1054-3686-3258 0-2264 1642-3037 3632-3258 1035-130 3472-99 3472-1389 0-1200-910-1442-1923-1442-1095 0-1808 452-1923 1602h-2937c0-1853 1561-3056 3258-3365m1068 6249c-876 220-1709 402-1709 1550 0 1540 2157 1565 3151 1068 1224-816 1015-1977 1015-3258-852 568-1533 410-2457 640m9828-6142l54 1496c990-1698 3469-2203 5181-1443 1666 667 1976 2524 1976 4113v6570h-2938v-6036c0-1367-296-2670-1923-2670-1916 0-2296 1553-2296 3151v5609h-2938v-10790h2884m13781 1923c-1921 0-2511 1930-2511 3525 0 1529 618 3365 2457 3365 1359 0 2247-839 2351-2190h2831c-428 2886-2290 4380-5182 4380-3184 0-5394-2283-5394-5448 0-3296 2026-5822 5448-5822 2668 0 4757 1384 4967 4113h-2884c-107-1282-801-1923-2083-1923m-49140-4968h5982v1443h-5982v-1443m60624 11858c902 0 2044-472 2350-1388h2564c-801 2402-2482 3632-5021 3632-3419 0-5448-2323-5448-5662 0-3198 2110-5662 5448-5662 3630 0 5385 3144 5181 6409h-7745c0 1711 999 2671 2671 2671m-161-6837c-1342 0-2403 931-2403 2297h4807c-281-1407-854-2297-2404-2297"/></svg>