<svg xmlns="http://www.w3.org/2000/svg" width="156" height="118" shape-rendering="geometricPrecision" image-rendering="optimizeQuality" fill-rule="evenodd" clip-rule="evenodd" viewBox="0 0 156000 118000"><path fill="#fff" fill-rule="nonzero" d="m46788 66161h1259c681 0 1171 62 1471 188 300 126 539 329 712 610 174 280 261 617 261 1010 0 435-115 796-343 1083-227 288-536 489-928 602-229 65-647 96-1252 96v2636h-1180v-6225m18376-8576c0-4014-1348-5448-5220-5448h-8580v-2690h13268v-4102h-17844v17839h13018c4258 0 5358-1209 5358-5599m63377-12240v17839h12534c4891 0 6002-2808 6002-7196v-3701c0-4694-1701-6942-6577-6942h-11959m4575 4330h7269c1794 0 1979 980 1979 2612v3701c0 1362-280 2866-1979 2866h-7269v-9179m-26180-4330v17839h4576v-6894h10098v6894h4576v-17839h-4576v6615h-10098v-6615h-4576m-20794 6560h4713c0-1786 132-2357 2416-2357h5290c1946 0 1977 1213 2056 2868h-5030v3494h5028c-61 1692-39 3096-2123 3096h-5221c-2396 0-2439-569-2439-2738h-4713c0 5414 1090 7068 6692 7068h5221c5051 0 7290-1226 7290-6791v-4562c0-5253-2321-6765-7221-6765h-5750c-5218 0-6209 1516-6209 6687m-19059-6560v17839h4575v-4512h7407c4984 0 5611-2287 5611-6739 0-4101-1096-6588-5611-6588h-11982m11131 8997h-6556v-4667h6556c427 0 1030 24 1356 329 592 556 583 3610-7 4091-310 253-957 247-1349 247m-19420 4740h-7430v-3197h7521c1284 0 1704 171 1704 1547 0 1354-516 1650-1795 1650m-17514-13737h-10076c440 1868 716 3737 558 5689h9518v-5689m-18297 21068c-5584 4698-8809-3675-4354-6069l4354 6069m4529-21068h-4727c-7717 0-8606 6815-6234 10612-7736 1411-10024 11082-4838 15069 4342 3339 11096 1427 15006-1669l3331 3019h11230v-6169c-3927 1654-7205 1393-9285-2407 998-1348 1862-2754 2507-4256h6778v-5871h-10004c-488 1676-1351 3433-2738 5316l-2889-4003c-2036-2821-444-3952 2421-3952 158-1952-118-3821-558-5689m20456 23252h380c299 0 506-21 622-63 117-43 209-113 276-211 67-98 100-217 100-357 0-241-94-418-282-527-135-83-390-125-760-125h-336v1283m3518-2436h3398v1162h-2219v1118h2219v1145h-2219v1638h2219v1162h-3398v-6225m4333 0h1196v2153l1685-2153h1429l-2174 2779 2365 3416 2393-6195h1202l2397 6225h-1267l-1727-4563-1752 4563c-878 0-1755 0-2632 0l-1919-2773v2773h-1196v-6225m12936 0h1194l2396 6225h-1233l-485-1283h-2552l-497 1283h-1233l2410-6225m598 1655l-843 2142h1683l-840-2142m4334-1655h1148l1450 4342 1456-4342h1146l1043 6225h-1143l-665-3932-1317 3932h-1046l-1312-3932-678 3932h-1156l1074-6225m7021 0h1205v2350h2080v-2350h1197v6225h-1197v-2731h-2080v2731h-1205v-6225m7633 0h1193l2396 6225h-1232l-486-1283h-2552l-497 1283h-1232l2410-6225m598 1655l-844 2142h1684l-840-2142m7404-1655v6225h-1179v-2514h-297l-1257 2514h-1294l1412-2709c-817-233-1226-776-1226-1629 0-2222 2239-1887 3841-1887m-1179 2566v-1404c-583 0-1405-107-1405 715 0 787 849 689 1405 689m4859-2566h1196v2153l1685-2153h1429l-2175 2779 2386 3446h-1406l-1919-2773v2773h-1196v-6225m8127-156c1819 0 3221 1486 3221 3288 0 1807-1393 3249-3212 3249-1842 0-3255-1439-3255-3271 0-1806 1434-3266 3246-3266m-17 1162c-1211 0-2033 944-2033 2128 0 1187 865 2103 2055 2103 1173 0 2020-963 2020-2111 0-1158-862-2120-2042-2120m4786-1006h1148l1450 4342 1456-4342h1146l1043 6225h-1143l-665-3932-1317 3932h-1046l-1313-3932-677 3932h-1156l1074-6225m7020 0h4482v6225h-1196v-5115h-2080v5115h-1206v-6225m7634 0h1193l2396 6225h-1233l-485-1283h-2552l-497 1283h-1233l2411-6225m598 1655l-844 2142h1683l-839-2142m3728-1655h1205v2350h2081v-2350h1196v6225h-1196v-2731h-2081v2731h-1205v-6225m10264 0v6225h-1179v-3897l-2345 3897h-1019v-6225h1179v4024l2382-4024h982m4914 0v6225h-1179v-2514h-296l-1257 2514h-1295l1412-2709c-817-233-1225-776-1225-1629 0-2248 2282-1887 3840-1887m-1179 2566v-1404c-588 0-1404-113-1404 715 0 785 833 689 1404 689"/></svg>