<svg xmlns="http://www.w3.org/2000/svg" width="37" height="37" shape-rendering="geometricPrecision" image-rendering="optimizeQuality" fill-rule="evenodd" clip-rule="evenodd" viewBox="0 0 37000 37000"><path fill="#fff" d="m21337 27783v925h-10862v-925l3938-1798 527-2098h1931l528 2098 3938 1798m6453-1818c-513 0-929 416-929 930 0 513 416 929 929 929 514 0 930-416 930-929 0-514-416-930-930-930m-3392-11381c2081 0 4704 0 6786 0v10497h-6786c0-3211 0-7286 0-10497m7710 14124v-15049c-2698 0-5937 0-8635 0 0 4728 0 10321 0 15049h8635m-5187-15974v-6460h-22030v16688h17657v-2078h-16732v-13685h20180v5535h925"/></svg>