<svg xmlns="http://www.w3.org/2000/svg" width="37" height="37" shape-rendering="geometricPrecision" image-rendering="optimizeQuality" fill-rule="evenodd" clip-rule="evenodd" viewBox="0 0 37000 37000"><path fill="#fff" fill-rule="nonzero" d="m13146 5590c-4709 215-7339 2845-7554 7554-160 3502-160 7206 0 10708 215 4709 2845 7339 7554 7554 3502 160 7206 160 10708 0 4709-215 7339-2845 7554-7554 160-3502 160-7206 0-10708-215-4709-2845-7339-7554-7554-3371-154-7337-154-10708 0m13844 5976c0 861-697 1558-1558 1558-861 0-1558-697-1558-1558 0-861 697-1558 1558-1558 861 0 1558 697 1558 1558m-8490 11261c-2391 0-4329-1938-4329-4329 0-2391 1938-4329 4329-4329 2391 0 4329 1938 4329 4329 0 2391-1938 4329-4329 4329m0-10998c-3683 0-6669 2986-6669 6669 0 3683 2986 6668 6669 6668 3683 0 6669-2985 6669-6668 0-3683-2986-6669-6669-6669m5248-3902c3595 164 5167 1920 5323 5323 156 3431 156 7064 0 10495-160 3497-1827 5164-5323 5323-3431 157-7065 157-10496 0-3496-159-5163-1826-5323-5323-156-3431-156-7064 0-10495 160-3496 1827-5163 5323-5323 3431-156 7065-156 10496 0"/></svg>