<svg xmlns="http://www.w3.org/2000/svg" width="156" height="118" shape-rendering="geometricPrecision" image-rendering="optimizeQuality" fill-rule="evenodd" clip-rule="evenodd" viewBox="0 0 156000 118000"><path fill="#fff" d="m36107 71505c-4474 3516-8709 7144-8709 13092 0 5254 4261 9516 9516 9516 5030 0 9149-3905 9493-8848-369-6303-5473-9967-10300-13760m50394 1277h2105c0-517-561-984-1069-984-507 0-1036 480-1036 984m2946 1122h-2946c0 694 746 903 1310 903 474 0 743-144 1161-342 349-164 677-294 990 31 359 379 198 896-178 1201-568 457-1470 631-2184 631-1738 0-2861-1255-2861-2959 0-1609 1218-2967 2861-2967 1545 0 2642 1291 2642 2791 0 565-263 711-795 711m-7132 1478v-6448c0-479 330-849 819-849 479 0 816 380 816 849v6448c0 472-336 840-816 840-489 0-819-358-819-840m-1887-5347c-549 0-975-440-975-985 0-548 427-976 975-976 538 0 986 435 986 976 0 539-447 985-986 985m-820 5349v-4017c0-477 330-860 820-860 482 0 816 391 816 860v4017c0 472-338 838-816 838-488 0-820-356-820-838m-3513-3397c-791 0-1134 673-1134 1382 0 694 365 1374 1134 1374 752 0 1120-698 1120-1374 0-692-346-1382-1120-1382m2745 1382c0 1456-975 2959-2550 2959-525 0-1056-216-1380-640-138 340-484 534-841 534-440-42-744-406-744-840v-6438c0-479 300-859 797-859 487 0 839 337 839 830v1961c377-317 856-474 1436-474 1533 75 2443 1551 2443 2967m-8934 2959c-1730 0-2756-1326-2756-2959 0-1642 1045-2967 2756-2967 1666 21 2747 1359 2747 2967-21 1595-1073 2959-2747 2959m1111-2959c0-709-328-1358-1111-1382-785 0-1120 681-1120 1382 0 670 326 1372 1078 1395 796 8 1153-694 1153-1395m-12764 2015v-4017c0-458 349-860 819-860 365 0 689 182 817 534 295-438 906-639 1415-639 671 0 1177 227 1520 683 407-378 931-683 1721-683 1171 58 1896 729 1896 1929v3053c0 479-329 838-816 838-479 0-819-367-819-840v-2600c0-497-266-985-816-985-551 0-820 486-820 985v2600c0 480-329 840-816 840-479 0-819-367-819-840v-2600c0-494-270-985-816-985-550 0-830 484-830 985v2600c0 480-329 840-817 840-477 0-819-366-819-838m64341-19588c1524 0 2759 1421 2759 3034 0 1614-1235 3034-2759 3034-1523 0-2759-1420-2759-3034 0-1613 1236-3034 2759-3034m-13758 0c1523 0 2759 1421 2759 3034 0 1614-1236 3034-2759 3034-1523 0-2759-1420-2759-3034 0-1613 1236-3034 2759-3034m0-3086c1119 0 2348 514 2943 1272 165-704 1006-964 1485-964 1044 0 1705 768 1705 1789v8527c0 3706-2630 6355-6574 6483-1533 49-2778-330-4009-1293-1624-1270 44-3690 1809-2367 2067 1551 5042 797 5307-2142-813 755-1921 935-2743 935-3379 0-6043-2741-6043-6120 0-3379 2741-6120 6120-6120m-15167 1264c2830-2929 7631-507 7631 3469v5742c0 961-693 1746-1677 1746-1000 0-1705-762-1705-1749v-5362c0-1294-937-2051-2101-2051-1173 0-2148 918-2148 2051v5362c0 981-700 1749-1698 1749-980 0-1705-777-1705-1746v-8418c0-945 735-1789 1705-1789 731 0 1437 292 1698 996m-33560-5419c1024 0 1855 831 1855 1856 0 1024-831 1855-1855 1855-1025 0-1856-831-1856-1855 0-1025 831-1856 1856-1856m-1702 14674v-8475c0-980 699-1789 1705-1789 992 0 1698 826 1698 1789v8475c0 968-716 1746-1698 1746-998 0-1705-760-1705-1746m10574 601l-4825-12851c-345-917 121-1921 1059-2283 925-356 1891 157 2228 1059l3294 8829 3295-8829c337-902 1302-1415 2228-1059 938 362 1404 1366 1059 2283l-4825 12851c-275 731-1037 1166-1757 1136-720 30-1482-405-1756-1136m16536-6320c-149-1107-1420-1993-2632-1993-1210 0-2681 912-2836 1993h5468m-2632-4800c2847 0 5070 1936 5719 4577 405 1646-479 2752-2234 2752h-6321c143 1181 1607 2099 2854 2152 984 42 1707-354 2350-885 772-637 1622-716 2187-184 697 656 571 1801-113 2393-1069 925-2520 1435-4442 1435-3379 0-6119-2741-6119-6120 0-3379 2740-6120 6119-6120m39709 0c3379 0 6008 2741 6008 6120 0 3379-2629 6120-6008 6120-3379 0-6120-2741-6120-6120 0-3379 2741-6120 6120-6120m-76164 31887c0-12791-19032-14976-19032-27584 0-5255 4261-9516 9516-9516 9078 0 9516 9518 9516 9516 0 8991 0 18423 0 27584m-9515-60710c-5223 0-9457 4233-9457 9456 0 5222 4234 9455 9457 9455 5222 0 9455-4233 9455-9455 0-5223-4233-9456-9455-9456"/></svg>