<svg xmlns="http://www.w3.org/2000/svg" width="156" height="118" shape-rendering="geometricPrecision" image-rendering="optimizeQuality" fill-rule="evenodd" clip-rule="evenodd" viewBox="0 0 156000 118000"><path fill="#fff" d="m80049 34181c-1319 1449-1972 1327-1950-573 16-1425 131-2921 219-4371 84-1389 159-1491 1184-2320 1207-977 1687-2297 1989-4404 342-2387 134-2553 1727-4598 1957-2512 4160-3396 5032 213 316 1311 544 3003 861 4021 874 2796 2039 2283 3755 2677 3586 822 3647 3492 1358 6118l-2869 3517c-1668 2044-3968 4721-4846 7435-1139 3521 494 2605 2333 1073 3796-3163 6623-7406 11197-10229 2835-1750 6726-2795 4801 878-883 1688-2318 3181-3086 4900-622 1389 78 2332 1846 2766 2575 633 5642 288 2742 3040-4903 4651-12443 10297-15801 15793-920 1507-622 2205 1008 2020 1374-156 2670-605 4104-851 2712-465 3717-118 2248 2521-821 1476-2164 2756-3502 3659-2741 1850-6278 2872-9124 4677-752 477-1297 999-190 1558 971 490 911 1021 487 1581-967 1277-3143 2887-4978 4086-1688 1102-1802 1211-1115-751l2126-6073c351-1002 722-1053 1586-1485 2531-1266 4435-2676 5582-4054 1444-1735 1364-2378-715-935-1033 717-2093 1351-3164 1942-2616 1444-3198 81-3137-1952 68-2275 936-4736 1753-6833 1248-3204 2319-4373 4463-7057 2177-2726 5897-6148 7593-9038 1286-2192 283-2476-1453-967-2607 2267-4999 5020-7294 7989-3760 4059-4078 688-4530-2848-188-1474-666-3289-1199-4927-880-2706-791-4562 507-7243l2420-5002c1339-2769 944-2827-690-409-1067 1579-2154 3221-3278 4456m19751 56858c-1867-1166-5701-701-7547 707-861 657 12 777 652 663 2143-381 4334-387 5678 188 1354 579 1978-1082 1217-1558m-23563-68354c-803 1542-907 2683 443 4389 236 299 347 621 305 1006-105 982-282 1884-505 2735-114 438-434 345-672 45-1412-1773-2848-3531-4109-5404-790-1174-2056-1212-1523 507 1554 4997 7518 9389 7984 14790 315 3637-1900 2303-3638 336-2575-2915-5964-6260-9718-7717-862-334-1863-482-900 753 5358 6872 14970 10043 15986 21252 105 1161-112 1295-895 783-5563-3641-11202-7429-15523-8655-1995-567-4359-475-1228 1392 5732 3419 12253 7496 15343 11379 947 1189 1628 2905 1797 4621 336 3387-730 6229-4604 4019-2814-1605-5798-3283-7792-3890-1765-537-1699 17-508 990 1919 1568 5326 3214 6811 4685 1105 1096 1716 2674 3443 2821 808 68 1678-193 2590-671 579-304 591-198 392 379-2456 7136-5171 12194-8071 15543-1523 1760-3613 2594-5903 2220-943-154-926-812-220-1394 2159-1782 4174-3647 5891-5906 902-1187 1019-2782 153-3920-700-919-3057-2287-4430-3094-1961-1151-3405-2183 48-2049 2419 94 683-2034-147-2921-2560-2735-6022-5358-8628-8179-2154-2332-3370-4753 1010-3954 3096 564 5800 2080 8742 2796 2167 527 2812-510 1167-2277-2297-2467-8156-5388-10883-7338-4179-2988-9349-7661-9916-11491-477-3217 2887-2638 5664-1739 3554 1151 6743 3017 9756 4511 5235 2594 6085 1458 1233-2105-4020-2953-9964-6159-11206-9765-635-1845 53-2898 2395-2958 2156-56 4387 528 6626 509 2489-20 1298-1200 292-2227-1331-1358-2921-2675-3848-4239-1488-2510 1450-2254 3487-2409 1625-123 1866-615 1516-2015-163-651-395-1317-472-1983-186-1632 485-2681 2358-2690 1329-6 2956 517 4170 1591 815 722 1659 1404 2668 1672 2349 623 5323-344 3794 3685-176 465-416 989-725 1581m-9147 71150c311 88 460 257 463 670 8 1261-158 4513 232 5579 283 772 877 1008 1901-57 1318-1371 2329-3239 3119-5420 232-641 506-1094 1123-993 401 67 1848 717 2050 938 257 280 162 629 62 1138-527 2678-1355 4014 127 6444 123 202 180 381 68 614-222 457-1431 1012-1896 1085-311 49-563-65-857-469-686-938-1035-2263-1031-3994-2179 2717-4351 6746-6376 2437-1172-2495-1170-4457-1298-7088-24-492 177-724 524-834 289-92 1524-125 1789-50m-8033-5146c197 3977 527 7465 941 10634 217 1663 725 4110 2741 4349 1133 135 1093-509 938-1471-1055-6548-1043-11996-482-17170 97-902-358-1509-1252-1914-1124-510-1935-636-2992 510-4172 4522-7319 12729-7935 18828-115 1142 759 1471 1116 189 1410-5053 3279-9875 6427-14121 288-388 474-306 498 166m28043 3254c394-170 855-346 1218-376 427-34 576 147 775 490 600 1027 956 3270 1193 5894 33 368 157 341 279 16 374-990 717-2176 1074-3269 109-334 338-474 609-524 361-66 1301 32 1636 196 228 112 410 298 595 633 421 766 697 2250 914 4020 63 521 184 380 301 0l1109-3583c62-270 234-413 489-460 253-47 714-4 962 56 277 67 451 188 712 461 1841 1928 2805 4245 3283 6779 92 486 80 1435-500 1435h-983c-579 0-822-160-838-787-41-1536-470-3556-1174-4821-573-1028-1010-905-1287-144-565 1550-1046 3323-1558 4916-325 1009-1228 1296-1691 160-445-1090-779-3151-1112-5010-243-1353-740-1372-1161-44l-1618 5093c-127 399-264 552-570 598-486 73-1719-120-2142-292-508-207-341-496-243-1166 494-3361 245-5928-607-9161-118-451-196-882 335-1110m-1644 3694c-149-1227-1698-1806-2776-1766-3247 119-6270 3294-5804 6580 582 4098 6273 4282 8697 1416 308-365 1150-1398 875-1891-97-172-272-225-431-31-990 1202-2088 2212-3729 2292-852 41-1736-178-2183-815-1505-2147 609-6894 4924-5369 390 138 475-28 427-416"/></svg>