<svg xmlns="http://www.w3.org/2000/svg" width="180" height="180" shape-rendering="geometricPrecision" image-rendering="optimizeQuality" fill-rule="evenodd" clip-rule="evenodd" viewBox="0 0 180000 180000"><path fill="#fff" d="m115153 90000c11671-14761 16143-27197 9297-45345-1079 0-2158 0-3236 0 7684 18108 2061 30862-9881 45345 11942 14483 17565 27237 9881 45345 1078 0 2157 0 3236 0 6846-18148 2374-30584-9297-45345m54737 14833c-5676 1563-9179 5897-11576 11151-1849-3096-6689-6473-11586-7107 3472 5843 4629 10794 2875 17970-2432 9950-11466 17412-22128 17412-5690 0-11380 0-17070 0-12469 0-22602-10179-22768-22466l3-14179c-210 2484-452 4963-1251 7369-819-2462-1012-4791-1245-7340-233 2547-427 4874-1245 7335-819-2463-1012-4793-1245-7343-234 2548-427 4875-1245 7337-819-2463-1012-4792-1245-7341-233 2547-427 4874-1245 7335-819-2463-1011-4791-1245-7340-233 2547-426 4874-1244 7334-819-2463-1012-4792-1245-7342-234 2548-427 4875-1245 7336-819-2462-1012-4791-1246-7340-232 2547-426 4874-1244 7335-776-2336-1027-4741-1233-7153 0 4564-15 9128-15 13691 0 22197 18106 40203 40203 40203h17070c21585 0 39311-17195 40170-38576 262-6536-454-12020 2245-18281m4677-3822c-7958 1038-12348 3035-16981 9919-4617-4087-11775-6447-18532-4745 7104 3492 9433 12710 7663 19957-2154 8810-10144 15145-19242 15145h-17060c-4394 0-8529-1477-11873-3997-9181-6923-8000-15915-7940-25988 1279 890 2522 2606 2973 3409-10 2565-141 7572 267 9733 1495 7936 8384 13872 16573 13872h17060c7720 0 14525-5390 16355-12879 2311-9456-1928-15605-10654-19220 7747-5260 18611-4064 23838 484 5445-6878 13648-9081 22078-8451-5046 10635-5048 13618-5509 25102-980 24421-21036 43896-45391 44272-5929 0-11858 6-17787 9-3266 0-6520-345-9707-1031-20592-4430-35615-22450-36406-43377-200-5189-39-10401-39-15596 992 0 1985 0 2978 0 0 4620 0 9239 0 13858 0 23693 19327 43174 43174 43174h17070c23088 0 42213-18364 43139-41428 268-6672-167-14469 3953-22222m-70770 31909c643-1868 1336-3659 2408-5527 183 2011 207 4004-82 6007 691-2046 1409-3984 2574-6013 198 2182 76 4326-245 6489 743-2224 1480-4306 2736-6494 213 2351-58 4650-407 6972 802-2408 1552-4633 2898-6978 222 2442-132 4827-494 7236 836-2511 1590-4811 2985-7242 219 625-430 6976-516 7302 845-2536 1600-4856 3007-7308 219 2406-138 4886-528 7370 1597-3554 2737-6498 3315-10413 1894-12828-4734-23414-14051-34321 9317-10907 15945-21493 14051-34321-578-3915-1718-6859-3315-10413 390 2484 747 4964 528 7370-1407-2452-2162-4772-3007-7308 86 326 735 6677 516 7302-1395-2431-2149-4731-2985-7242 362 2409 716 4794 494 7236-1346-2345-2096-4570-2898-6978 349 2322 620 4621 407 6972-1256-2188-1993-4270-2736-6494 321 2163 443 4307 245 6489-1165-2029-1883-3967-2574-6013 289 2003 265 3996 82 6007-1072-1868-1765-3659-2408-5527-211 2017-68 4070 141 6085 198 1894 288 3833 288 5348 0 12506-10265 22772-22771 22772-13172 0-26343 0-39514 0 0-15181 0-30363 0-45544 8248 0 16496 0 24744 0-2095-191-4247-475-6218-1241 2586-749 5204-1016 7875-1249-2193-210-4541-393-6594-1239 2722-751 5328-1004 8123-1246-2127-208-4502-381-6475-1244 2776-739 5412-1001 8256-1244 1-1-5640-936-6316-1247 2516-653 5402-1063 8000-1283-1885-187-4090-378-5807-1205 2777-704 5571-1019 8418-1258-1885-189-4236-363-5933-1233 2935-717 5718-996 8713-1245-1811-185-4268-353-5866-1245 2343-550 5338-628 8063-408-1775-719-5613-844-7670-844-18695 0-37390 0-56085 0 3832 3737 7026 8088 12890 8088h15900c2460 0 3278-1474 4631-1474 3270 0 3137 4137 0 4137-1353 0-2171-1474-4631-1474h-15900c-6335 0-9556-4369-13680-8392 0 3003 0 6005 0 9008 7960 5565 8131 14985 8131 23782-1 5493 0 13494 0 19797 0 8953-4874 14347-10888 18218 6014 3871 10888 9265 10888 18218 0 6303-1 14304 0 19797 0 8797-171 18217-8131 23782 0 3003 0 6005 0 9008 4124-4023 7345-8392 13680-8392h15900c2460 0 3278-1474 4631-1474 3137 0 3270 4137 0 4137-1353 0-2171-1474-4631-1474h-15900c-5864 0-9058 4351-12890 8088 18695 0 37390 0 56085 0 2057 0 5895-125 7670-844-2725 220-5720 142-8063-408 1598-892 4055-1060 5866-1245-2995-249-5778-528-8713-1245 1697-870 4048-1044 5933-1233-2847-239-5641-554-8418-1258 1717-827 3922-1018 5807-1205-2598-220-5484-630-8000-1283 676-311 6317-1246 6316-1247-2844-243-5480-505-8256-1244 1973-863 4348-1036 6475-1244-2795-242-5401-495-8123-1246 2053-846 4401-1029 6594-1239-2671-233-5289-500-7875-1249 1971-766 4123-1050 6218-1241-8248 0-16496 0-24744 0 0-15181 0-30363 0-45544 13171 0 26342 0 39514 0 12506 0 22771 10266 22771 22772 0 1515-90 3454-288 5348-209 2015-352 4068-141 6085m-14216-42920c7083 2017 12388 4752 17185 10633 2260 2770 4047 5952 5224 9420 563 1661 946 2130 1974 3470 352 459 597 1010 690 1558 245 1453-917 2980-2414 2654-900-195-1664-1092-1664-2537 2-1800 1172-2221 244-4908-4043-11700-15120-19677-27541-19677h-48524c-1720 0-2637 720-3495 1154-1490 752-3550-70-3550-1767 0-1697 2060-2519 3550-1767 858 434 1775 1154 3495 1154h48524c12421 0 23498-7977 27541-19677 928-2687-242-3108-244-4908 0-1445 764-2342 1664-2537 1497-326 2659 1201 2414 2654-93 548-338 1099-690 1558-1028 1340-1411 1809-1974 3470-1177 3468-2964 6650-5224 9420-4797 5881-10102 8616-17185 10633m-44669 51287c0-13200 0-26400 0-39600 12181 0 24362 0 36543 0 15331 0 23221 15334 18495 28887-242-318-2230-3122-2230-3239 2291-11287-3704-22677-16265-22677-11191 0-22381 0-33572 0 0 11219 0 22439 0 33658 5460 0 10920 0 16381 0 285 754 859 2252 1163 2971-6838 0-13677 0-20515 0m-44004-51287c9925 4230 17659 9890 17659 19403 0 6204 0 12409 0 18613 1 10801 342 14879-8131 20598v19019h54723c8069 0 17264 187 25111-1374-1337-632-3408-1664-4675-2413-6583 483-12827 815-19437 815-17584 0-35167 0-52750 0 0-4822 0-9646 0-14469 8113-4671 8131-13911 8130-22176 0-6600 0-13199 0-19798 0-9731-8365-15553-13406-18218 5041-2665 13406-8487 13406-18218 0-6599 0-13198 0-19798 1-8265-17-17505-8130-22176 0-4823 0-9647 0-14469 17583 0 35166 0 52750 0 6610 0 12854 332 19437 815 1267-749 3338-1781 4675-2413-7847-1561-17042-1374-25111-1374h-54723v19019c8473 5719 8132 9797 8131 20598 0 6204 0 12409 0 18613 0 9513-7734 15173-17659 19403m154431 44528c-1734 3637-4155 6889-7085 9585-4097 3769-9189 6453-14790 7588-1433 287-2242 828-3406 1691-1816 1348-2034 1244-3818-172-2332-1852-3176-1852-5508 0-1885 1497-2147 1497-4032 0-2332-1852-3175-1852-5507 0-1784 1416-2003 1520-3819 172-1098-814-1952-1405-3320-1674-5635-1124-10758-3816-14875-7605-2931-2696-5352-5948-7086-9585-1090-2289-310-2695-310-4612 0-1143-926-2069-2069-2069-1142 0-2068 926-2068 2069 0 1631 2067 2180 2955 4202 1819 4148 4488 7845 7774 10868 4307 3963 9677 6771 15585 7923 1051 206 1930 857 2708 1435 2283 1693 3048 1563 5263-196 1885-1496 2146-1497 4031 0 2332 1852 3176 1852 5508 0 1885-1497 2147-1496 4031 0 2215 1759 2981 1889 5263 196 779-578 1657-1229 2709-1435 5907-1152 11277-3960 15584-7923 3042-2798 5556-6174 7355-9950 783-1643 993-1916 2334-3265 566-570 904-1173 1057-1741 610-2256-1745-3442-3282-2175-534 440-898 1146-872 2061 56 1915 781 2324-310 4612m-125233 6064c0 782 1188 782 1188 0 0-590 566-1303 1133-2016 1852-2331 1851-3176 0-5508-1497-1884-1497-2146 0-4031 1851-2332 1851-3176 0-5508-1497-1885-1497-2147 0-4031 1851-2333 1851-3176 0-5508-1498-1885-1497-2147 0-4032 1852-2332 1851-3175 0-5507-566-713-1133-1426-1133-2016 0-782-1188-782-1188 0 0 1000 696 1877 1392 2754 1497 1884 1497 2147 0 4031-1851 2332-1852 3176 0 5508 1497 1885 1497 2147 0 4032-1851 2331-1852 3176 0 5507 1497 1885 1497 2147 0 4032-1851 2332-1852 3176 0 5508 1497 1884 1497 2146 0 4031-696 877-1392 1754-1392 2754m139784-65425c-5676-1563-9179-5897-11576-11151-1849 3096-6689 6473-11586 7107 3472-5843 4629-10794 2875-17970-2432-9950-11466-17412-22128-17412-5690 0-11380 0-17070 0-12469 0-22602 10179-22768 22466l3 14179c-210-2484-452-4963-1251-7369-819 2462-1012 4791-1245 7340-233-2547-427-4874-1245-7335-819 2463-1012 4793-1245 7343-234-2548-427-4875-1245-7337-819 2463-1012 4792-1245 7341-233-2547-427-4874-1245-7335-819 2463-1011 4791-1245 7340-233-2547-426-4874-1244-7334-819 2463-1012 4792-1245 7342-234-2548-427-4875-1245-7336-819 2462-1012 4791-1246 7340-232-2547-426-4874-1244-7335-776 2336-1027 4741-1233 7153 0-4564-15-9128-15-13691 0-22197 18106-40203 40203-40203h17070c21585 0 39311 17195 40170 38576 262 6536-454 12020 2245 18281m4677 3822c-7958-1038-12348-3035-16981-9919-4617 4087-11775 6447-18532 4745 7104-3492 9433-12710 7663-19957-2154-8810-10144-15145-19242-15145h-17060c-4394 0-8529 1477-11873 3997-9181 6923-8000 15915-7940 25988 1279-890 2522-2606 2973-3409-10-2565-141-7572 267-9733 1495-7936 8384-13872 16573-13872h17060c7720 0 14525 5390 16355 12879 2311 9456-1928 15605-10654 19220 7747 5260 18611 4064 23838-484 5445 6878 13648 9081 22078 8451-5046-10635-5048-13618-5509-25102-980-24421-21036-43896-45391-44272-5929 0-11858-6-17787-9-3266 0-6520 345-9707 1031-20592 4430-35615 22450-36406 43377-200 5189-39 10401-39 15596 992 0 1985 0 2978 0 0-4620 0-9239 0-13858 0-23693 19327-43174 43174-43174h17070c23088 0 42213 18364 43139 41428 268 6672-167 14469 3953 22222m-129655-40276c0 13200 0 26400 0 39600 12181 0 24362 0 36543 0 15331 0 23221-15334 18495-28887-242 318-2230 3122-2230 3239 2291 11287-3704 22677-16265 22677-11191 0-22381 0-33572 0 0-11219 0-22439 0-33658 5460 0 10920 0 16381 0 285-754 859-2252 1163-2971-6838 0-13677 0-20515 0m110427 6759c-1734-3637-4155-6889-7085-9585-4097-3769-9189-6453-14790-7588-1433-287-2242-828-3406-1691-1816-1348-2034-1244-3818 172-2332 1852-3176 1852-5508 0-1885-1497-2147-1497-4032 0-2332 1852-3175 1852-5507 0-1784-1416-2003-1520-3819-172-1098 814-1952 1405-3320 1674-5635 1124-10758 3816-14875 7605-2931 2696-5352 5948-7086 9585-1090 2289-310 2695-310 4612 0 1143-926 2069-2069 2069-1142 0-2068-926-2068-2069 0-1631 2067-2180 2955-4202 1819-4148 4488-7845 7774-10868 4307-3963 9677-6771 15585-7923 1051-206 1930-857 2708-1435 2283-1693 3048-1563 5263 196 1885 1496 2146 1497 4031 0 2332-1852 3176-1852 5508 0 1885 1497 2147 1496 4031 0 2215-1759 2981-1889 5263-196 779 578 1657 1229 2709 1435 5907 1152 11277 3960 15584 7923 3042 2798 5556 6174 7355 9950 783 1643 993 1916 2334 3265 566 570 904 1173 1057 1741 610 2256-1745 3442-3282 2175-534-440-898-1146-872-2061 56-1915 781-2324-310-4612m-125233-6064c0-782 1188-782 1188 0 0 590 566 1303 1133 2016 1852 2331 1851 3176 0 5508-1497 1884-1497 2146 0 4031 1851 2332 1851 3176 0 5508-1497 1885-1497 2147 0 4031 1851 2333 1851 3176 0 5508-1498 1885-1497 2147 0 4032 1852 2332 1851 3175 0 5507-566 713-1133 1426-1133 2016 0 782-1188 782-1188 0 0-1000 696-1877 1392-2754 1497-1884 1497-2147 0-4031-1851-2332-1852-3176 0-5508 1497-1885 1497-2147 0-4032-1851-2331-1852-3176 0-5507 1497-1885 1497-2147 0-4032-1851-2332-1852-3176 0-5508 1497-1884 1497-2146 0-4031-696-877-1392-1754-1392-2754"/></svg>