<svg xmlns="http://www.w3.org/2000/svg" width="37" height="37" shape-rendering="geometricPrecision" image-rendering="optimizeQuality" fill-rule="evenodd" clip-rule="evenodd" viewBox="0 0 37000 37000"><path fill="#fff" d="m12595 8027c0 0-541-1082-1623-1082-1082 0-4027 2064-4027 5229 0 6699 11194 17881 17881 17881 3166 0 5229-2945 5229-4027 0-1082-1082-1623-1082-1623-885-576-4209-3005-5169-3005-1602 0-1943 2224-3546 2224-1861 0-6882-5021-6882-6882 0-1603 2224-1943 2224-3546 0-960-2429-4283-3005-5169"/></svg>