<svg xmlns="http://www.w3.org/2000/svg" width="37" height="37" shape-rendering="geometricPrecision" image-rendering="optimizeQuality" fill-rule="evenodd" clip-rule="evenodd" viewBox="0 0 37000 37000"><path fill="#fff" d="m18500 14513c2699 0 4892 2192 4892 4892 0 2699-2193 4892-4892 4892-2700 0-4892-2193-4892-4892 0-2700 2192-4892 4892-4892m-9242-4380h-2143c-348 0-632 284-632 632v633c1135 0 2271 0 3407 0v-633c0-348-284-632-632-632m16247 2189h6604v3668h-7513c-2655-4726-9538-4726-12193 0h-7513v-3668h6605l2538-3337h8933l2539 3337m-476 4592h7080v5775h-7440c944-1771 1076-3901 360-5775m-951 6699h8031c0 1467 0 2934 0 4401h-27219c0-1467 0-2934 0-4401h8031c2782 3682 8375 3682 11157 0m-11747-924h-7441v-5775h7080c-715 1874-584 4003 361 5775m6169-9347c3349 0 6062 2713 6062 6063 0 3349-2713 6062-6062 6062-3350 0-6063-2712-6063-6062 0-3265 2674-6063 6063-6063m0 2096c-2193 0-3967 1774-3967 3967 0 2193 1774 3967 3967 3967 2193 0 3967-1774 3967-3967 0-2193-1774-3967-3967-3967"/></svg>