<svg xmlns="http://www.w3.org/2000/svg" width="37" height="37" shape-rendering="geometricPrecision" image-rendering="optimizeQuality" fill-rule="evenodd" clip-rule="evenodd" viewBox="0 0 37000 37000"><path fill="#fff" d="m32109 20784v-4800c0-1017-832-1848-1848-1848h-23523c-1016 0-1848 832-1848 1848v4800h27219m-2889-5140c-513 0-929 416-929 929 0 514 416 930 929 930 514 0 930-416 930-930 0-513-416-929-930-929m-20450 13668h-3880v-7605h27219v7605h-3880c-305-1113-610-2227-915-3340h2412v-924h-22453v924h2412c-305 1113-610 2227-915 3340m840-21536c-1208 0-2383 374-2383 1848v3588h2383v-5436m924 5436v-8202h15931v8202h-15931m-1802 19736l1911-6976h15713l1911 6976h-19535m18657-25172c1208 0 2383 374 2383 1848v3588h-2383v-5436"/></svg>