<svg xmlns="http://www.w3.org/2000/svg" width="125" height="30" shape-rendering="geometricPrecision" image-rendering="optimizeQuality" fill-rule="evenodd" clip-rule="evenodd" viewBox="0 0 125000 30000"><path fill="#fff" fill-rule="nonzero" d="m73740 13299c-965-175-1792-400-1792-1372 0-834 875-1223 1963-1223 1620 0 3041 734 3202 815l888-2343c-342-177-1787-949-4062-949-2085 0-4631 1094-4631 3817 0 2438 1741 3220 3420 3515 973 178 2917 269 2917 1554 0 938-881 1376-2213 1376-2134 0-3388-636-3749-785l-983 2292c305 157 1762 979 4605 979 2760 0 4973-1367 4973-3910-26-2946-2234-3354-4538-3766m-26789-4834h2998v2497h-2998v5040c0 1818 1153 2236 2724 2236v2499c-3204 0-5335-601-5335-4376v-5399h-4395v5040c0 1817 1154 2236 2724 2236v2499c-3204 0-5337-601-5337-4376v-5399h-1323v-2497h1323v-3059l2613-1444v4503h4395v-3059l2611-1444v4503m46490 2678h-2715c-432 0-782 351-782 781v2947h-2678v-2947c0-1912 1548-3459 3460-3459h2715v2678m-2210 6916h2717c430 0 781-350 781-782v-2945h2679v2945c0 1911-1549 3461-3460 3461h-2717v-2679m-28814-5611v8290h2610v-8066c0-705 400-1909 2315-1909 302 0 981 86 1199 127v-2532c-235-56-775-132-1333-132-3318 0-4791 2082-4791 4222m-4282 1223h-4404v-893c0-2788 4404-2788 4404-49v942m2611-1227c0-2244-1710-4217-4788-4217-3492 0-4832 2180-4832 4217v4077c0 2818 1803 4454 4832 4454 2675 0 4063-1545 4475-2475l-2204-1324c-188 546-1062 1311-2252 1311-1615 0-2236-901-2236-2029l-10-673h7015v-3341m-52870 855c-963-175-1792-400-1792-1372 0-834 874-1223 1963-1223 1619 0 3040 734 3202 815l887-2343c-338-177-1785-949-4062-949-2084 0-4630 1094-4630 3817 0 2438 1739 3220 3420 3515 974 178 2916 267 2916 1554 0 938-879 1376-2211 1376-2136 0-3389-636-3750-785l-983 2292c306 157 1763 979 4606 979 2759 0 4973-1367 4973-3910-28-2944-2235-3355-4539-3766m24121 4998c-496 268-1124 422-1749 422-1949 0-2682-994-2682-2363v-7891h-2610v7939c0 3086 1784 4571 4971 4571 1526 0 3216-386 4681-1019v-11491h-2611v9832m-13235-10070c-826 0-1665 160-2418 480v-4745h-2612v16775h2612v-9590c524-328 1280-526 2018-526 1641 0 2413 913 2413 2258v7858h2609v-8214c0-2477-1793-4296-4622-4296m84776 2538c1019 0 2063 464 2375 1585l2370-901c-663-2345-2843-3222-4764-3222-3444 0-4832 2138-4832 4217v4313c0 2078 1388 4218 4832 4218 1921 0 4101-879 4764-3224l-2370-900c-312 1120-1356 1586-2375 1586-1775 0-2246-972-2246-2079v-3516c0-1106 471-2077 2246-2077m18918-612h-274v-1687h308l464 1096 469-1096h310v1687h-277l53-1232-443 998h-217l-419-1005 26 1239m-443-1688v276h-511v1412h-276v-1412h-513v-276h1300m-7311 5512l4882-5512h-3211l-4198 4805v-9308h-2614v16776h2614v-3906l856-969 3740 4875h3133l-5202-6761m-31564-10015l-2611 1444v3059h-1375v2497h1375v5399c0 3774 2134 4376 5337 4376v-2499c-1571 0-2726-417-2726-2236v-5040h2999v-2497h-2999v-4503"/></svg>