<svg xmlns="http://www.w3.org/2000/svg" width="37" height="37" shape-rendering="geometricPrecision" image-rendering="optimizeQuality" fill-rule="evenodd" clip-rule="evenodd" viewBox="0 0 37000 37000"><path fill="#fff" d="m7208 8643h22584c1266 0 2301 1035 2301 2301v14706c0 1266-1035 2301-2301 2301h-8542l-2750 3198-2749-3198h-8543c-1265 0-2300-1035-2300-2301v-14706c0-1266 1035-2301 2300-2301m11293 6146c903-1280 2396-1488 3456-1190 2281 638 3673 3990 712 6684l-4168 3792-4169-3792c-2961-2694-1569-6046 712-6684 1060-298 2553-90 3457 1190"/></svg>