<svg xmlns="http://www.w3.org/2000/svg" width="156" height="118" shape-rendering="geometricPrecision" image-rendering="optimizeQuality" fill-rule="evenodd" clip-rule="evenodd" viewBox="0 0 156000 118000"><path fill="#fff" fill-rule="nonzero" d="m12342 52268c-532-486-582-1210-70-1731 906-922 2582-404 3363 488l2074-1653c-1663-2099-4183-1834-4183-1834-2024-37-3753 1189-4277 2884-413 1331 191 2797 1238 3670 0 0 3738 3385 4627 4085 888 699 1668 2308-725 3238-2239 700-3807-1387-3807-1387l-2128 1594c0 0 1665 2496 5139 2436 3474-60 5302-2533 5153-4542-148-2009-1646-3043-2189-3538-543-495-3113-2705-4215-3710m114597 18054c-833 0-1508-614-1508-1373 0-759 675-1373 1508-1373 833 0 1508 614 1508 1373 0 759-675 1373-1508 1373m-13767-112c-249 220-930 237-1243 232v-1241c332-24 635-94 893-204 808 497 675 926 350 1213m-56-2318c30 317-435 791-1187 809v-1140c0 0 1129-325 1187 331m834 1578c-81-350-475-682-618-793 218-199 357-447 390-736 144-1234-1705-976-2469-976v3969c433 0 865 0 1297 0 1444-96 1499-1034 1400-1464m2868-2505l-1149 1361-1150-1361h-723l1535 1856v2112h675v-2112l1535-1856h-723m27570 3968l-1629-2128 1427-1840h-930l-953 1244-952-1244h-931l1428 1840-1629 2128h888l1196-1541 1196 1541h889m-13949-2542v2543h-675v-4152l2755 2725v-2543h675v4153l-2755-2726m9523-860v-569c-890 0-1781 2-2668 2v3970c889 0 1779 0 2668 0v-570h-1994v-1209h1610v-570h-1610v-1054h1994m7584-569h-3104v569h1215v3402h675v-3402h1214v-569m-10745 0h-3104v569h1215v3402h675v-3402h1214v-569m-16493 3971h-675v-3968h675v3968m2771-611c-833 0-1508-614-1508-1373 0-759 675-1373 1508-1373 360 0 691 115 950 306v-719c-287-127-609-198-950-198-1203 0-2179 888-2179 1984 0 1096 976 1984 2179 1984 442 0 852-119 1195-324v-822c-276 326-708 535-1195 535m3860-3357c-1204 0-2179 888-2179 1984 0 1096 975 1984 2179 1984 1204 0 2179-888 2179-1984 0-1096-975-1984-2179-1984m10325-8648l2188-5030 2190 5030h-4378m-107695 3241c-3439 0-6228-2539-6228-5671 0-3132 2789-5671 6228-5671 3440 0 6228 2539 6228 5671 0 3132-2788 5671-6228 5671m0-13865c-4970 0-8999 3669-8999 8194 0 4526 4029 8195 8999 8195 4970 0 9000-3669 9000-8195 0-4525-4030-8194-9000-8194m19697 13865c-3440 0-6228-2539-6228-5671 0-3132 2788-5671 6228-5671 1487 0 2851 476 3922 1267v-2972c-1185-524-2516-818-3922-818-4970 0-8999 3669-8999 8194 0 4526 4029 8195 8999 8195 1822 0 3516-494 4932-1341v-3392c-1139 1343-2924 2209-4932 2209m10222 2524h-2788v-16389h2788v16389m11471-2524c-3439 0-6228-2539-6228-5671 0-3132 2789-5671 6228-5671 3440 0 6228 2539 6228 5671 0 3132-2788 5671-6228 5671m0-13865c-4970 0-8999 3669-8999 8194 0 4526 4029 8195 8999 8195 4971 0 9000-3669 9000-8195 0-4525-4029-8194-9000-8194m14212 2354h3008c4045 0 4044 6191 0 6191h-3008v-6191m4892 8072c5306-1674 4508-10356-1689-10356-2065 0-3937-70-5990-70v16389h2787v-5540h2080l4610 5571h3128l-4926-5994m11113 198l2188-5030 2189 5030h-4377m6864 5713h3117l-7793-17079-7792 17079h3117l1517-3485h6317l1517 3485m13374-5593l8517-11554v17199h-2788v-8843l-5729 7775-5730-7775v8843h-2788v-17199l8518 11554m22714 5593h3117l-7793-17079-7792 17079h3117l1517-3485h6318l1516 3485"/></svg>