<svg xmlns="http://www.w3.org/2000/svg" width="37" height="37" shape-rendering="geometricPrecision" image-rendering="optimizeQuality" fill-rule="evenodd" clip-rule="evenodd" viewBox="0 0 37000 37000"><path fill="#fff" d="m26445 5270c0 3125 0 6250 0 9375 2517-1141 3273-3345 3418-5976h-2494v-1848h4366c153 4681-926 8523-5797 9978-2579 6835-12297 6835-14877 0-4871-1455-5950-5297-5797-9978h4366v1848h-2493c144 2631 900 4835 3417 5976 0-3125 0-6250 0-9375h15891m-15811 26460v-548l5835-4436 777-3864h2507l777 3864 5835 4436v548h-15731"/></svg>