<svg xmlns="http://www.w3.org/2000/svg" width="156" height="118" shape-rendering="geometricPrecision" image-rendering="optimizeQuality" fill-rule="evenodd" clip-rule="evenodd" viewBox="0 0 156000 118000"><path fill="#fff" d="m34343 43607c499 14773 21668 18103 26298 3304h1357c-1810 6395-7270 10760-13944 10948-8249 86-15036-6438-15036-14727 0-8104 6635-14696 14730-14696 7797 0 14697 6266 14697 14191v980h-28102m-11369 30853h878l-2742 2711 2968 2897h-925l-2696-2583v2583h-701v-5608h701v2465l2517-2465m109964 14040v-4188h668v3123l2187-3123h669v4188h-669l-62-3123-2125 3123h-668m-4529 0v-4188h669v3123l2187-3123h669v4188h-669v-3123l-2187 3123h-669m-1412-2906c-478-1891-3493-6-1974 1950 508 655 1737 593 1974-306h676c-292 1861-3675 2001-3675-848 0-2798 3374-2688 3675-796h-676m-4206 0c-478-1891-3494-6-1974 1950 508 655 1737 593 1974-306h676c-292 1861-3675 2001-3675-848 0-2798 3374-2688 3675-796h-676m-5524 2378c1685 0 1690-3133 0-3133-1690 0-1685 3133 0 3133m0 602c-2602 0-2605-4337 0-4337 2606 0 2604 4337 0 4337m-4250-5682c2397 0 2409 3607-8 3607h-1410v2001h-700v-5608h2118m-1418 2985c1075 0 2495 240 2495-1169 0-1436-1365-1193-2495-1193v2362m-6425-1006v1181c1127 0 1845-127 1845-623 0-537-530-558-1845-558m0 1740v1330c943 0 1905 179 1905-657 0-834-1055-673-1905-673m-668-2299c947 0 3051-373 3051 1071 0 490-260 781-685 945 1281 180 1226 2172-564 2172h-1802v-4188m-3919 2129v-1570c-2277 0-2488 1570 0 1570m0 559h-719l-1069 1500h-797l1170-1624c-1467-410-1252-2564 626-2564h1457v4188h-668v-1500m-5501-338c-80 1076-541 2241-1476 1830v-614c1056 366 917-2364 1001-3566h2741v4188h-669v-3629h-1465l-132 1791m-5535 1838v-4188h669v3123l2187-3123h669v4188h-669l-62-3123-2125 3123h-669m-650-3629h-1359v3629h-669v-3629h-1361v-559h3389v559m-4253 723c-826-1429-2338-631-2397 761-68 1661 2044 2223 2397 883h676c-292 1861-3676 2001-3676-848 0-2798 3375-2688 3676-796h-676m-4089-1282h812l-2079 1983 2153 2205h-867l-1861-1908v1908h-668v-4188h668v1752l1842-1752m-5134 516c-710 0-1136 534-1186 1232h2308c-13-697-418-1232-1122-1232m1772 2589c-456 1631-3653 1789-3653-1007 0-2752 3707-3213 3707 190h-3012c0 1682 1875 1692 2289 817h669m-3942-2546h-1360v3629h-668v-3629h-1361v-559h3389v559m-8011 3101c1685 0 1690-3133 0-3133-1690 0-1685 3133 0 3133m0 602c-2603 0-2606-4337 0-4337 2606 0 2603 4337 0 4337m-4311-3703v3629h-668v-4188h2682v559h-2014m-3292-43c-710 0-1136 534-1185 1232h2307c-13-697-417-1232-1122-1232m1772 2589c-455 1631-3653 1789-3653-1007 0-2752 3708-3213 3708 190h-3012c0 1682 1874 1692 2288 817h669m-7917-3105h668v1732h2129v-1732h668v4188h-668v-1896h-2129v1896h-668v-4188m-6180 0h668v3629h1585v-3629h669v3629h1586v-3629h667v4188h-5175v-4188m-2779 3672c953-55 1071-750 1071-1431-877 58-2044-37-2044 757-6 674 732 686 973 674m-250 590c-1755 0-2101-2355 113-2486l1208-75c0-1873-1746-1178-1892-660h-676c190-1447 3237-1662 3237 280v2867h-638v-618c-293 483-803 692-1352 692m-6834-74v-4188h812l1531 3239 1535-3239h782v4188h-672v-2980l-1400 2864h-520l-1399-2864v2980h-669m-2729-528c1684 0 1689-3133 0-3133-1691 0-1686 3133 0 3133m0 602c-2604 0-2606-4337 0-4337 2605 0 2603 4337 0 4337m-3617-3703h-1588c-14 1547-116 2774-479 3070h2067v-3070m-3197 4737v-1667c1067 0 885-1855 1009-3629h2857v3629h668v1667h-629v-1108h-3277v1108h-628m-6242-1108v-4188h668v3123l2187-3123h669v4188h-669v-3123l-2187 3123h-668m7123-12695c2375 0 2361 4337 0 4337-1012 0-1244-493-1371-704v2030h-668v-5589h637v700c241-322 325-687 1402-774m-159 3735c1659 0 1662-3133 4-3133-1664 0-1664 3133-4 3133m2696 2024v-571c930 181 1130-798 1127-921l-1550-4193h723l1212 3446 1146-3446h711l-1950 4807c-301 741-490 1039-1419 878m6840-5125h-2090v3629h-669v-4189h3427v4189h-668v-3629m1743-560h668v1733h2129v-1733h669v4189h-669v-1896h-2129v1896h-668v-4189m6216 516c-710 0-1136 534-1186 1233h2308c-13-698-418-1233-1122-1233m1772 2590c-456 1631-3653 1789-3653-1007 0-2752 3707-3213 3707 190h-3012c0 1681 1875 1692 2289 817h669m922 1083v-4189h668v3124l2187-3124h669v4189h-669v-3123l-2187 3123h-668m960-6047c0 1087 1452 1084 1452 0h606c0 1698-2664 1710-2664 0h606m3638 1858h668v3630h1585v-3630h669v3630h1586v-3630h667v4189h-5175v-4189m6250 4189v-4189h668v3124l2188-3124h668v4189h-668v-3123l-2188 3123h-668m4599 0v-4189h668v3124l2187-3124h669v4189h-669v-3123l-2187 3123h-668m960-6047c0 1087 1452 1084 1452 0h606c0 1698-2664 1710-2664 0h606m8643 2418h-2091v3629h-668v-4189h3427v4189h-668v-3629m3468 3101c1685 0 1690-3133 0-3133-1690 0-1686 3133 0 3133m0 602c-2603 0-2606-4337 0-4337 2605 0 2603 4337 0 4337m5594-2980c-478-1891-3494-6-1974 1950 508 654 1737 593 1974-306h676c-292 1861-3675 2001-3675-848 0-2799 3374-2688 3675-796h-676m4323-723h-1359v3629h-668v-3629h-1362v-560h3389v560m2135 3110c923-68 1038-755 1038-1428-756 50-1727-13-1981 477-300 580 278 1000 943 951m-283 593c-1755 0-2101-2355 113-2486l1208-75c0-1873-1746-1178-1892-660h-676c190-1447 3237-1662 3237 280v2867h-638v-618c-293 483-803 692-1352 692m3767-3703v1181c1124 0 1854-174 1845-620-14-701-1379-561-1845-561m0 1740v1330c943 0 1905 179 1905-657 0-835-1055-673-1905-673m-668-2300c903 0 2926-302 3066 916 70 620-176 834-700 1100 1281 181 1226 2173-564 2173h-1802v-4189m9344 5297v-1108h-5215v-4189h668v3630h1585v-3630h669v3630h1586v-3630h667v3630h669v1667h-629m1252-1108v-4189h668v3124l2188-3124h668v4189h-668v-3123l-2188 3123h-668m7109-4189h812l-2125 1974 2199 2215h-867l-1861-1908v1908h-668v-4189h668v1753l1842-1753m4237 4189h-757l1434-2094-1450-2095h797l1057 1559 983-1559h758l-1422 2067 1442 2122h-794l-991-1581-1057 1581m4580-1838c-80 1075-541 2242-1476 1830v-614c1056 366 918-2364 1001-3567h2741v4189h-668v-3629h-1466l-132 1791m5066 1310c1684 0 1689-3133 0-3133-1690 0-1686 3133 0 3133m0 602c-2603 0-2606-4337 0-4337 2605 0 2603 4337 0 4337m5559-3703h-2091v3629h-668v-4189h3427v4189h-668v-3629m4254-560h811l-2013 1955 2088 2234h-868l-1861-1908v1908h-668v-4189h668v1753l1843-1753m3933 2242c-596 39-1326 9-1732 234-472 261-422 1001 114 1158 1063 312 1618-367 1618-1392m-1320 2021c-1755 0-2102-2355 112-2486l1208-75c0-1873-1746-1178-1892-660h-675c189-1447 3236-1662 3236 280v2867h-638v-618c-293 483-802 692-1351 692m-11733-29012c2642-2665 5792-4132 9490-4634-1789 4878-5729 8108-10939 8654v1372c7048-379 12682-6247 12682-13390 0-7390-6029-13376-13410-13376-7380 0-13410 5986-13410 13376 0 7234 5779 13159 12953 13401v-1383c-5211-546-9150-3776-10939-8654 3698 502 6847 1969 9490 4634-622-3886 95-7236 2041-10627 1947 3385 2663 6747 2042 10627m-1449 6714v11719h-1185v-11709c-7893-244-14239-6779-14239-14722 0-8100 6596-14696 14696-14696 8100 0 14697 6596 14697 14696 0 7852-6201 14330-13969 14712m-92279-28026v26898h-1184v-26898h-8038v-1185h17260v1185h-8038m66711 11537l13360-12919h1703l-14540 14061 14914 15365h-1651l-13786-14204v14204h-1185v-29426h1185v12919m-2765-2011h-1361c-1752-5763-6914-9632-12898-9632-7380 0-13410 5986-13410 13376 0 7387 6025 13411 13410 13411 6011 0 11128-3924 12893-9632h1357c-1835 6480-7461 10951-14250 10951-8105 0-14697-6634-14697-14730 0-8103 6602-14680 14697-14696 6733-13 12419 4389 14259 10952m-58359 3078h26800c-439-7054-6285-12666-13399-12666-7130 0-13026 5563-13401 12666"/></svg>