<svg xmlns="http://www.w3.org/2000/svg" width="37" height="37" shape-rendering="geometricPrecision" image-rendering="optimizeQuality" fill-rule="evenodd" clip-rule="evenodd" viewBox="0 0 37000 37000"><path fill="#fff" fill-rule="nonzero" d="m26132 14278c115-384 0-665-547-665h-1809c-460 0-672 243-787 511 0 0-920 2243-2224 3699-421 422-613 556-843 556-115 0-281-134-281-517v-3584c0-461-134-665-517-665h-2843c-287 0-460 213-460 416 0 436 651 536 719 1763v2664c0 584-106 690-336 690-613 0-2105-2253-2990-4830-173-501-347-703-810-703h-1809c-517 0-620 243-620 511 0 479 613 2856 2856 5999 1495 2147 3601 3310 5517 3310 1151 0 1293-258 1293-703v-1622c0-517 109-621 473-621 268 0 728 135 1802 1170 1226 1226 1428 1776 2118 1776h1810c516 0 775-258 626-768-164-508-749-1246-1526-2120-422-498-1054-1035-1246-1303-268-345-192-499 0-805 0 0 2204-3105 2434-4159m-12986-8688c-4709 215-7339 2845-7554 7554-160 3502-160 7206 0 10708 215 4709 2845 7339 7554 7554 3502 160 7206 160 10708 0 4709-215 7339-2845 7554-7554 160-3502 160-7206 0-10708-215-4709-2845-7339-7554-7554-3371-154-7337-154-10708 0m10602 2337c3595 164 5167 1920 5323 5323 156 3431 156 7064 0 10495-160 3497-1827 5164-5323 5323-3431 157-7065 157-10496 0-3496-159-5163-1826-5323-5323-156-3431-156-7064 0-10495 160-3496 1827-5163 5323-5323 3431-156 7065-156 10496 0"/></svg>