<svg xmlns="http://www.w3.org/2000/svg" width="37" height="37" shape-rendering="geometricPrecision" image-rendering="optimizeQuality" fill-rule="evenodd" clip-rule="evenodd" viewBox="0 0 37000 37000"><path fill="#fff" d="m29092 10186c-514 0-930 416-930 929 0 514 416 930 930 930 513 0 929-416 929-930 0-513-416-929-929-929m2093 18389h-25371v-924h25371v924m-26295 923h27219c0-7332 0-14664 0-21997h-27219c0 7333 0 14665 0 21997m924-15692v-5381h25371v5381h-25371m22531 8110l1148-3769h965l-1630 5354h-966l-1147-3768-1148 3768h-966l-1630-5354h966l1147 3769 1148-3769h965l1148 3769m-11476 0l-1148-3769h-965l1630 5354h966l1148-3768 1147 3768h966l1630-5354h-965l-1148 3769-1148-3769h-965l-1148 3769m-8215 0l-1148-3769h-965l1630 5354h966l1148-3768 1147 3768h966l1630-5354h-965l-1148 3769-1148-3769h-965l-1148 3769m17521-11730c-513 0-929 416-929 929 0 514 416 930 929 930 514 0 930-416 930-930 0-513-416-929-930-929m-2916 0c-513 0-930 416-930 929 0 514 417 930 930 930 513 0 929-416 929-930 0-513-416-929-929-929"/></svg>